<svg version="1.1" id="Layer_1" xmlns="http://www.w3.org/2000/svg" xmlns:xlink="http://www.w3.org/1999/xlink" x="0px" y="0px"
	 width="100%" viewBox="0 0 306 334" enable-background="new 0 0 306 334" xml:space="preserve">
<path fill="#2B2B2A" opacity="1.000000" stroke="none" 
	d="
M161.000000,335.000000 
	C107.333351,335.000000 54.166706,335.000000 1.000043,335.000000 
	C1.000029,223.666733 1.000029,112.333450 1.000014,1.000132 
	C102.999908,1.000088 204.999817,1.000088 306.999817,1.000044 
	C306.999878,112.333199 306.999878,223.666397 306.999939,334.999817 
	C258.500000,335.000000 210.000000,335.000000 161.000000,335.000000 
M63.603756,24.070503 
	C62.801441,23.417295 62.054012,22.279146 61.188850,22.181232 
	C33.841206,19.086096 21.372166,37.813595 21.763235,55.538586 
	C22.402628,84.518639 21.936382,113.523102 21.934568,142.517273 
	C21.933867,153.734451 19.734859,156.884430 9.328452,160.534073 
	C9.328452,166.265900 9.328452,172.013596 9.328452,177.652924 
	C19.135181,180.661255 21.930067,184.440750 21.933237,194.416687 
	C21.942825,224.577271 21.848965,254.738281 21.984785,284.898285 
	C22.064352,302.566833 35.408886,315.754333 53.074005,315.940033 
	C61.571377,316.029358 70.070427,315.959686 78.568710,315.961029 
	C84.512428,315.961975 90.456139,315.961243 96.957191,315.961243 
	C96.957191,313.198059 96.957085,311.073517 96.957214,308.949005 
	C96.960434,257.126099 96.818863,205.302628 97.019592,153.480484 
	C97.146011,120.843422 123.880974,94.886032 156.371048,95.301575 
	C188.131012,95.707779 213.967834,121.634476 214.069336,153.677750 
	C214.233475,205.500137 214.117630,257.323425 214.120010,309.146332 
	C214.120117,311.246948 214.120026,313.347565 214.120026,315.960297 
	C227.648666,315.960297 240.442474,315.979004 253.236206,315.955994 
	C273.263184,315.919983 286.056305,303.162933 286.077576,283.148346 
	C286.108765,253.820938 286.083008,224.493484 286.088287,195.166046 
	C286.090210,184.407730 288.542053,180.984756 298.753784,177.569199 
	C298.753784,171.849167 298.753784,166.084015 298.753784,160.409698 
	C288.786102,157.340195 286.091797,153.635147 286.089081,143.211258 
	C286.081451,113.550552 286.191986,83.889061 285.971649,54.229992 
	C285.937866,49.681072 285.192444,44.802650 283.413574,40.662025 
	C277.194763,26.186811 262.866394,19.667500 244.785583,22.648382 
	C244.785583,28.304901 244.785583,34.024014 244.785583,40.286366 
	C246.961746,40.286366 248.764038,40.279995 250.566269,40.287384 
	C264.132660,40.343006 267.964081,44.234177 267.964966,57.963806 
	C267.966705,84.291847 268.133057,110.621437 267.888855,136.947205 
	C267.780457,148.632401 267.970032,160.013611 277.000488,169.066513 
	C269.799500,176.687027 267.825623,185.459991 267.892487,195.188797 
	C268.094055,224.514847 267.986389,253.843185 267.950165,283.170563 
	C267.938385,292.726685 263.043884,297.619049 253.494934,297.750946 
	C248.830078,297.815430 244.163635,297.767303 239.497910,297.765259 
	C232.375488,297.762146 232.367325,297.760315 232.366882,290.845184 
	C232.364029,246.187500 232.410004,201.529694 232.306747,156.872253 
	C232.294098,151.404999 231.884705,145.873749 230.988922,140.483551 
	C222.151886,87.308067 160.501541,59.723660 115.021126,88.752411 
	C90.829018,104.193489 78.809067,126.683746 78.769485,155.411926 
	C78.706581,201.069336 78.707443,246.726990 78.825447,292.384186 
	C78.835800,296.387787 77.898689,298.090698 73.582306,297.848694 
	C67.602310,297.513428 61.589336,297.787018 55.590668,297.759613 
	C44.712582,297.709930 40.087822,293.080780 40.082325,282.200714 
	C40.068432,254.706253 39.906853,227.210205 40.159985,199.718079 
	C40.263401,188.486053 39.657734,177.707184 31.084925,168.975906 
	C38.685074,161.015472 40.249641,151.645844 40.163090,141.454407 
	C39.918289,112.628952 40.056614,83.800049 40.090736,54.972549 
	C40.102085,45.383148 44.952190,40.491268 54.483047,40.302235 
	C57.398148,40.244415 60.315365,40.293259 63.671856,40.293259 
	C63.671856,34.583645 63.671856,29.780163 63.603756,24.070503 
z"/>
<path fill="#B0A28C" opacity="1.000000" stroke="none" 
	d="
M63.637806,24.523592 
	C63.671856,29.780163 63.671856,34.583645 63.671856,40.293259 
	C60.315365,40.293259 57.398148,40.244415 54.483047,40.302235 
	C44.952190,40.491268 40.102085,45.383148 40.090736,54.972549 
	C40.056614,83.800049 39.918289,112.628952 40.163090,141.454407 
	C40.249641,151.645844 38.685074,161.015472 31.084925,168.975906 
	C39.657734,177.707184 40.263401,188.486053 40.159985,199.718079 
	C39.906853,227.210205 40.068432,254.706253 40.082325,282.200714 
	C40.087822,293.080780 44.712582,297.709930 55.590668,297.759613 
	C61.589336,297.787018 67.602310,297.513428 73.582306,297.848694 
	C77.898689,298.090698 78.835800,296.387787 78.825447,292.384186 
	C78.707443,246.726990 78.706581,201.069336 78.769485,155.411926 
	C78.809067,126.683746 90.829018,104.193489 115.021126,88.752411 
	C160.501541,59.723660 222.151886,87.308067 230.988922,140.483551 
	C231.884705,145.873749 232.294098,151.404999 232.306747,156.872253 
	C232.410004,201.529694 232.364029,246.187500 232.366882,290.845184 
	C232.367325,297.760315 232.375488,297.762146 239.497910,297.765259 
	C244.163635,297.767303 248.830078,297.815430 253.494934,297.750946 
	C263.043884,297.619049 267.938385,292.726685 267.950165,283.170563 
	C267.986389,253.843185 268.094055,224.514847 267.892487,195.188797 
	C267.825623,185.459991 269.799500,176.687027 277.000488,169.066513 
	C267.970032,160.013611 267.780457,148.632401 267.888855,136.947205 
	C268.133057,110.621437 267.966705,84.291847 267.964966,57.963806 
	C267.964081,44.234177 264.132660,40.343006 250.566269,40.287384 
	C248.764038,40.279995 246.961746,40.286366 244.785583,40.286366 
	C244.785583,34.024014 244.785583,28.304901 244.785583,22.648382 
	C262.866394,19.667500 277.194763,26.186811 283.413574,40.662025 
	C285.192444,44.802650 285.937866,49.681072 285.971649,54.229992 
	C286.191986,83.889061 286.081451,113.550552 286.089081,143.211258 
	C286.091797,153.635147 288.786102,157.340195 298.753784,160.409698 
	C298.753784,166.084015 298.753784,171.849167 298.753784,177.569199 
	C288.542053,180.984756 286.090210,184.407730 286.088287,195.166046 
	C286.083008,224.493484 286.108765,253.820938 286.077576,283.148346 
	C286.056305,303.162933 273.263184,315.919983 253.236206,315.955994 
	C240.442474,315.979004 227.648666,315.960297 214.120026,315.960297 
	C214.120026,313.347565 214.120117,311.246948 214.120010,309.146332 
	C214.117630,257.323425 214.233475,205.500137 214.069336,153.677750 
	C213.967834,121.634476 188.131012,95.707779 156.371048,95.301575 
	C123.880974,94.886032 97.146011,120.843422 97.019592,153.480484 
	C96.818863,205.302628 96.960434,257.126099 96.957214,308.949005 
	C96.957085,311.073517 96.957191,313.198059 96.957191,315.961243 
	C90.456139,315.961243 84.512428,315.961975 78.568710,315.961029 
	C70.070427,315.959686 61.571377,316.029358 53.074005,315.940033 
	C35.408886,315.754333 22.064352,302.566833 21.984785,284.898285 
	C21.848965,254.738281 21.942825,224.577271 21.933237,194.416687 
	C21.930067,184.440750 19.135181,180.661255 9.328452,177.652924 
	C9.328452,172.013596 9.328452,166.265900 9.328452,160.534073 
	C19.734859,156.884430 21.933867,153.734451 21.934568,142.517273 
	C21.936382,113.523102 22.402628,84.518639 21.763235,55.538586 
	C21.372166,37.813595 33.841206,19.086096 61.188850,22.181232 
	C62.054012,22.279146 62.801441,23.417295 63.637806,24.523592 
z"/>
</svg>